<svg xmlns="http://www.w3.org/2000/svg" xmlns:xlink="http://www.w3.org/1999/xlink" width="500" zoomAndPan="magnify" viewBox="0 0 375 374.999991" height="500" preserveAspectRatio="xMidYMid meet" version="1.0"><defs><g/><clipPath id="7be3b6cb36"><path d="M 148.882812 229.601562 L 166.289062 229.601562 L 166.289062 247.007812 L 148.882812 247.007812 Z M 148.882812 229.601562 " clip-rule="nonzero"/></clipPath><clipPath id="f56a97a89c"><path d="M 157.585938 229.601562 C 152.78125 229.601562 148.882812 233.5 148.882812 238.304688 C 148.882812 243.113281 152.78125 247.007812 157.585938 247.007812 C 162.394531 247.007812 166.289062 243.113281 166.289062 238.304688 C 166.289062 233.5 162.394531 229.601562 157.585938 229.601562 " clip-rule="nonzero"/></clipPath></defs><g fill="#ebe9e3" fill-opacity="1"><g transform="translate(149.262366, 247.517666)"><g><path d="M 51.5 -74.210938 C 51.5 -62.589844 35.917969 -62.589844 35.917969 -62.589844 L 20.070312 -62.589844 L 20.070312 -86.757812 L 35.917969 -86.757812 C 35.917969 -86.757812 51.5 -86.886719 51.5 -74.210938 Z M 71.703125 -75.398438 C 71.703125 -106.429688 35.917969 -105.640625 35.917969 -105.640625 L 1.453125 -105.640625 C 0.660156 -105.640625 0 -104.980469 0 -104.449219 L 0 -42.914062 L 35.917969 -42.914062 C 35.917969 -42.914062 52.953125 -43.707031 52.953125 -31.296875 C 52.953125 -21.128906 42.519531 -19.277344 35.917969 -19.277344 L 20.203125 -19.277344 L 20.203125 0 L 35.917969 0 C 43.046875 0 73.15625 -1.320312 73.15625 -30.765625 C 73.15625 -30.765625 73.816406 -47.140625 57.046875 -52.820312 C 65.101562 -56.121094 71.703125 -63.121094 71.703125 -75.398438 Z M 71.703125 -75.398438 "/></g></g></g><g clip-path="url(#7be3b6cb36)"><g clip-path="url(#f56a97a89c)"><path fill="#ebe9e3" d="M 148.882812 229.601562 L 166.289062 229.601562 L 166.289062 247.007812 L 148.882812 247.007812 Z M 148.882812 229.601562 " fill-opacity="1" fill-rule="nonzero"/></g></g><g fill="#ebe9e3" fill-opacity="1"><g transform="translate(135.859008, 273.023831)"><g><path d="M 7.417969 -5.269531 C 8.371094 -5.605469 8.835938 -6.277344 8.835938 -7.164062 C 8.835938 -8.429688 7.9375 -9.441406 6.335938 -9.636719 C 5.84375 -9.691406 5.617188 -9.691406 5.097656 -9.691406 L 1.125 -9.691406 L 1.125 0 L 4.988281 0 C 5.605469 0 5.929688 0 6.417969 -0.0546875 C 7.726562 -0.210938 9.199219 -1.109375 9.199219 -2.921875 C 9.199219 -4.101562 8.640625 -4.917969 7.417969 -5.269531 Z M 3.652344 -7.726562 L 4.789062 -7.726562 C 5.015625 -7.726562 5.238281 -7.710938 5.421875 -7.683594 C 5.898438 -7.613281 6.195312 -7.347656 6.195312 -6.800781 C 6.195312 -6.222656 5.871094 -5.984375 5.410156 -5.914062 C 5.226562 -5.886719 5.015625 -5.871094 4.789062 -5.871094 L 3.652344 -5.871094 Z M 5.648438 -1.980469 C 5.464844 -1.964844 5.238281 -1.964844 5.015625 -1.964844 L 3.652344 -1.964844 L 3.652344 -4.046875 L 4.945312 -4.046875 C 5.167969 -4.046875 5.394531 -4.046875 5.578125 -4.03125 C 6.097656 -3.988281 6.558594 -3.652344 6.558594 -3.007812 C 6.558594 -2.375 6.097656 -2.007812 5.648438 -1.980469 Z M 5.648438 -1.980469 "/></g></g></g><g fill="#ebe9e3" fill-opacity="1"><g transform="translate(150.660265, 273.023831)"><g><path d="M 3.652344 0 L 3.652344 -9.691406 L 1.125 -9.691406 L 1.125 0 Z M 3.652344 0 "/></g></g></g><g fill="#ebe9e3" fill-opacity="1"><g transform="translate(160.309197, 273.023831)"><g><path d="M 10.394531 0 L 10.394531 -9.691406 L 7.867188 -9.691406 L 7.867188 -5.546875 C 7.867188 -4.988281 7.878906 -3.988281 7.949219 -3.007812 L 4.269531 -9.691406 L 1.125 -9.691406 L 1.125 0 L 3.652344 0 L 3.652344 -4.003906 C 3.652344 -4.566406 3.652344 -5.421875 3.566406 -6.40625 L 7.09375 0 Z M 10.394531 0 "/></g></g></g><g fill="#d9073c" fill-opacity="1"><g transform="translate(176.687131, 273.023831)"><g><path d="M 6.574219 -2.515625 L 7.390625 0 L 10.140625 0 L 6.644531 -9.691406 L 3.554688 -9.691406 L 0.0546875 0 L 2.738281 0 L 3.554688 -2.515625 Z M 5.070312 -7.460938 L 5.96875 -4.480469 L 4.171875 -4.480469 Z M 5.070312 -7.460938 "/></g></g></g><g fill="#d9073c" fill-opacity="1"><g transform="translate(191.853396, 273.023831)"><g><path d="M 9.019531 -7.726562 L 9.019531 -9.691406 L 0.195312 -9.691406 L 0.195312 -7.726562 L 3.34375 -7.726562 L 3.34375 0 L 5.871094 0 L 5.871094 -7.726562 Z M 9.019531 -7.726562 "/></g></g></g><g fill="#d9073c" fill-opacity="1"><g transform="translate(205.966737, 273.023831)"><g><path d="M 8.554688 -1.964844 L 3.652344 -1.964844 L 3.652344 -3.878906 L 8.132812 -3.878906 L 8.132812 -5.84375 L 3.652344 -5.84375 L 3.652344 -7.726562 L 8.414062 -7.726562 L 8.414062 -9.691406 L 1.125 -9.691406 L 1.125 0 L 8.554688 0 Z M 8.554688 -1.964844 "/></g></g></g><g fill="#d9073c" fill-opacity="1"><g transform="translate(220.17835, 273.023831)"><g><path d="M 5.546875 -9.890625 C 2.921875 -9.890625 0.757812 -8.148438 0.757812 -4.777344 C 0.757812 -1.488281 2.851562 0.195312 5.449219 0.195312 C 7.878906 0.195312 9.664062 -0.996094 9.902344 -3.328125 L 9.917969 -3.46875 L 7.390625 -3.46875 L 7.359375 -3.328125 C 7.148438 -2.261719 6.519531 -1.65625 5.535156 -1.65625 C 4.410156 -1.65625 3.398438 -2.488281 3.398438 -4.929688 C 3.398438 -7.023438 4.3125 -8.035156 5.519531 -8.035156 C 6.546875 -8.035156 7.179688 -7.542969 7.390625 -6.503906 L 7.417969 -6.363281 L 9.945312 -6.363281 L 9.929688 -6.503906 C 9.734375 -8.414062 8.316406 -9.890625 5.546875 -9.890625 Z M 5.546875 -9.890625 "/></g></g></g></svg>